<svg width="897" height="532" viewBox="0 0 897 532" fill="none" xmlns="http://www.w3.org/2000/svg">
<g clip-path="url(#clip0_42_4)">
<path d="M514.336 520.623C508.784 520.619 503.461 517.974 499.536 513.27C495.612 508.566 493.408 502.189 493.408 495.539C493.408 488.889 495.612 482.511 499.536 477.808C503.461 473.104 508.784 470.459 514.336 470.455H825.407C823.842 467.014 821.533 464.142 818.721 462.14C815.91 460.138 812.7 459.081 809.429 459.078H191.103C183.036 459.089 175.302 462.935 169.601 469.772C163.901 476.608 160.699 485.876 160.7 495.539C160.704 505.2 163.907 514.464 169.607 521.299C175.307 528.135 183.037 531.983 191.103 532H809.429C812.7 531.997 815.91 530.939 818.721 528.937C821.533 526.935 823.842 524.063 825.407 520.623L514.336 520.623Z" fill="#CBCED3"/>
<path d="M825.82 484.277H530.063C529.611 484.275 529.177 484.059 528.857 483.675C528.538 483.291 528.358 482.771 528.358 482.229C528.358 481.687 528.538 481.166 528.857 480.783C529.177 480.399 529.611 480.182 530.063 480.181H825.82C826.272 480.182 826.706 480.399 827.026 480.783C827.346 481.166 827.525 481.687 827.525 482.229C827.525 482.771 827.346 483.291 827.026 483.675C826.706 484.059 826.272 484.275 825.82 484.277Z" fill="#CCCCCC"/>
<path d="M825.82 497.587H530.063C529.61 497.587 529.175 497.371 528.855 496.987C528.534 496.603 528.354 496.082 528.354 495.539C528.354 494.996 528.534 494.475 528.855 494.091C529.175 493.707 529.61 493.491 530.063 493.491H825.82C826.273 493.491 826.708 493.707 827.029 494.091C827.349 494.475 827.529 494.996 827.529 495.539C827.529 496.082 827.349 496.603 827.029 496.987C826.708 497.371 826.273 497.587 825.82 497.587Z" fill="#CCCCCC"/>
<path d="M825.82 510.897H530.063C529.611 510.895 529.177 510.679 528.857 510.295C528.538 509.911 528.358 509.391 528.358 508.849C528.358 508.307 528.538 507.787 528.857 507.403C529.177 507.019 529.611 506.803 530.063 506.801H825.82C826.272 506.803 826.706 507.019 827.026 507.403C827.346 507.787 827.525 508.307 827.525 508.849C827.525 509.391 827.346 509.911 827.026 510.295C826.706 510.679 826.272 510.895 825.82 510.897Z" fill="#CCCCCC"/>
<path d="M433.985 449.978C428.434 449.973 423.11 447.328 419.186 442.624C415.262 437.921 413.057 431.543 413.057 424.893C413.057 418.243 415.262 411.866 419.186 407.162C423.11 402.458 428.434 399.814 433.985 399.809H745.056C743.492 396.369 741.183 393.497 738.371 391.495C735.56 389.493 732.35 388.435 729.08 388.432H110.753C102.686 388.443 94.9522 392.289 89.2514 399.126C83.5506 405.963 80.3489 415.231 80.3497 424.893C80.3539 434.554 83.5572 443.818 89.2569 450.654C94.9566 457.489 102.687 461.337 110.753 461.354H729.08C732.35 461.351 735.56 460.293 738.371 458.291C741.183 456.29 743.492 453.418 745.056 449.977L433.985 449.978Z" fill="#FD660E"/>
<path d="M745.47 413.631H449.713C449.261 413.63 448.827 413.413 448.507 413.029C448.188 412.646 448.008 412.126 448.008 411.583C448.008 411.041 448.188 410.521 448.507 410.137C448.827 409.753 449.261 409.537 449.713 409.536H745.47C745.923 409.536 746.358 409.751 746.679 410.135C746.999 410.519 747.179 411.04 747.179 411.583C747.179 412.126 746.999 412.647 746.679 413.031C746.358 413.415 745.923 413.631 745.47 413.631Z" fill="#CCCCCC"/>
<path d="M745.47 426.941H449.713C449.26 426.941 448.825 426.725 448.505 426.341C448.184 425.957 448.004 425.436 448.004 424.893C448.004 424.35 448.184 423.829 448.505 423.445C448.825 423.061 449.26 422.846 449.713 422.846H745.47C745.923 422.846 746.358 423.061 746.678 423.445C746.999 423.829 747.179 424.35 747.179 424.893C747.179 425.436 746.999 425.957 746.678 426.341C746.358 426.725 745.923 426.941 745.47 426.941Z" fill="#CCCCCC"/>
<path d="M745.47 440.251H449.713C449.261 440.25 448.827 440.033 448.507 439.65C448.188 439.266 448.008 438.746 448.008 438.203C448.008 437.661 448.188 437.141 448.507 436.757C448.827 436.373 449.261 436.157 449.713 436.156H745.47C745.695 436.155 745.917 436.207 746.125 436.31C746.333 436.413 746.522 436.563 746.681 436.754C746.84 436.944 746.967 437.17 747.053 437.419C747.139 437.667 747.183 437.934 747.183 438.203C747.183 438.473 747.139 438.739 747.053 438.988C746.967 439.237 746.84 439.463 746.681 439.653C746.522 439.843 746.333 439.994 746.125 440.097C745.917 440.199 745.695 440.252 745.47 440.251Z" fill="#CCCCCC"/>
<path d="M353.636 376.975C348.084 376.97 342.761 374.325 338.836 369.622C334.912 364.918 332.708 358.54 332.708 351.891C332.708 345.241 334.912 338.863 338.836 334.159C342.761 329.456 348.084 326.811 353.636 326.806H664.707C663.142 323.366 660.833 320.494 658.021 318.492C655.21 316.49 652 315.432 648.73 315.429H30.4026C22.3355 315.44 14.602 319.287 8.90131 326.123C3.20059 332.96 -0.0010037 342.228 2.36035e-07 351.89C0.00408161 361.551 3.20731 370.815 8.90692 377.651C14.6065 384.486 22.3371 388.335 30.4026 388.352H648.73C652 388.349 655.21 387.291 658.021 385.289C660.833 383.287 663.142 380.415 664.707 376.975L353.636 376.975Z" fill="#CBCED3"/>
<path d="M108.896 426.264V424.728H119.392V435.352C118.539 436.717 117.323 437.773 115.744 438.52C114.165 439.267 112.245 439.64 109.984 439.64C107.424 439.64 105.216 439.107 103.36 438.04C101.504 436.973 100.064 435.459 99.04 433.496C98.0373 431.512 97.536 429.165 97.536 426.456C97.536 423.832 98.0267 421.539 99.008 419.576C100.011 417.613 101.397 416.088 103.168 415C104.939 413.912 106.976 413.368 109.28 413.368C111.691 413.368 113.728 413.816 115.392 414.712C117.077 415.587 118.283 416.771 119.008 418.264L117.984 419.224C117.067 417.645 115.861 416.536 114.368 415.896C112.875 415.235 111.179 414.904 109.28 414.904C107.253 414.904 105.472 415.384 103.936 416.344C102.4 417.304 101.205 418.659 100.352 420.408C99.4987 422.136 99.072 424.152 99.072 426.456C99.072 428.845 99.5093 430.915 100.384 432.664C101.28 434.413 102.539 435.768 104.16 436.728C105.803 437.667 107.744 438.136 109.984 438.136C113.696 438.136 116.32 437.059 117.856 434.904V426.264H108.896ZM108.896 429.592V428.056H115.904V433.464C115.349 434.36 114.581 435.075 113.6 435.608C112.619 436.141 111.413 436.408 109.984 436.408C108.555 436.408 107.232 436.024 106.016 435.256C104.8 434.488 103.829 433.368 103.104 431.896C102.379 430.403 102.016 428.589 102.016 426.456C102.016 424.365 102.357 422.605 103.04 421.176C103.744 419.725 104.693 418.627 105.888 417.88C107.083 417.133 108.427 416.76 109.92 416.76C111.179 416.76 112.405 417.059 113.6 417.656C114.795 418.232 115.797 419.192 116.608 420.536L115.424 421.656C114.869 420.611 114.123 419.789 113.184 419.192C112.267 418.595 111.179 418.296 109.92 418.296C108.683 418.296 107.584 418.616 106.624 419.256C105.664 419.896 104.907 420.824 104.352 422.04C103.819 423.256 103.552 424.728 103.552 426.456C103.552 428.227 103.84 429.741 104.416 431C104.992 432.259 105.76 433.219 106.72 433.88C107.701 434.541 108.789 434.872 109.984 434.872C111.072 434.872 111.989 434.701 112.736 434.36C113.483 433.997 114.027 433.549 114.368 433.016V429.592H108.896ZM136.289 427.544C137.569 427.075 138.561 426.563 139.265 426.008C139.991 425.453 140.492 424.803 140.769 424.056C141.068 423.309 141.217 422.435 141.217 421.432C141.217 420.237 140.929 419.203 140.353 418.328C139.799 417.453 139.031 416.781 138.049 416.312C137.068 415.821 135.937 415.576 134.657 415.576H125.633V439H124.097V414.04H134.657C136.257 414.04 137.665 414.349 138.881 414.968C140.097 415.587 141.047 416.451 141.729 417.56C142.412 418.648 142.753 419.939 142.753 421.432C142.753 423.373 142.38 424.899 141.633 426.008C140.908 427.096 139.863 427.885 138.497 428.376L144.417 439H142.593L136.289 427.544ZM128.321 417.368H133.569C135.02 417.368 136.183 417.763 137.057 418.552C137.932 419.32 138.369 420.376 138.369 421.72C138.369 423.192 137.932 424.333 137.057 425.144C136.204 425.955 135.052 426.36 133.601 426.36H128.321V417.368ZM133.601 424.824C134.583 424.824 135.361 424.557 135.937 424.024C136.535 423.469 136.833 422.701 136.833 421.72C136.833 420.824 136.524 420.131 135.905 419.64C135.308 419.149 134.529 418.904 133.569 418.904H129.857V424.824H133.601ZM133.089 429.4H129.825V439H128.289V427.864H134.081L139.201 439H137.505L133.089 429.4ZM159.53 415.576H154.346L146.506 439H144.906L153.226 414.04H160.65L168.97 439H167.306L159.53 415.576ZM155.946 418.104H157.802L161.642 429.784H152.106L155.946 418.104ZM159.53 428.248C159.424 427.907 159.253 427.395 159.018 426.712C158.784 426.029 158.528 425.272 158.25 424.44C157.973 423.587 157.717 422.744 157.482 421.912C157.248 421.059 157.077 420.301 156.97 419.64H156.778C156.672 420.28 156.501 421.027 156.266 421.88C156.053 422.712 155.808 423.555 155.53 424.408C155.253 425.24 154.997 426.008 154.762 426.712C154.528 427.395 154.357 427.907 154.25 428.248H159.53ZM161.13 433.144H152.682L150.698 439H149.098L151.594 431.608H162.25L164.65 439H163.05L161.13 433.144ZM176.073 429.464H182.025C184.158 429.464 185.833 428.835 187.049 427.576C188.265 426.317 188.873 424.621 188.873 422.488C188.873 421.144 188.595 419.96 188.041 418.936C187.486 417.891 186.707 417.069 185.705 416.472C184.702 415.875 183.507 415.576 182.121 415.576H173.321V439H171.785V414.04H182.121C183.806 414.04 185.267 414.403 186.505 415.128C187.742 415.853 188.702 416.856 189.385 418.136C190.067 419.395 190.409 420.845 190.409 422.488C190.409 425.112 189.662 427.192 188.169 428.728C186.675 430.243 184.627 431 182.025 431H177.609V439H176.073V429.464ZM175.977 417.4H180.809C182.323 417.4 183.582 417.816 184.585 418.648C185.609 419.48 186.121 420.771 186.121 422.52C186.121 423.672 185.886 424.632 185.417 425.4C184.947 426.147 184.307 426.712 183.497 427.096C182.707 427.459 181.822 427.64 180.841 427.64H175.977V417.4ZM180.841 426.104C181.886 426.104 182.771 425.816 183.497 425.24C184.222 424.643 184.585 423.736 184.585 422.52C184.585 421.283 184.222 420.376 183.497 419.8C182.771 419.224 181.875 418.936 180.809 418.936H177.513V426.104H180.841ZM198.95 414.04H200.486V423.672H208.87V414.04H210.406V425.208H198.95V414.04ZM213.318 414.04H214.854V439H213.318V414.04ZM194.566 414.04H196.102V439H194.566V414.04ZM208.87 428.568H200.486V439H198.95V427.032H210.406V439H208.87V428.568ZM225.08 414.04H226.616V439H225.08V414.04ZM220.6 414.04H222.136V439H220.6V414.04ZM252.475 434.648C251.685 436.184 250.459 437.4 248.795 438.296C247.152 439.192 245.264 439.64 243.131 439.64C240.741 439.64 238.64 439.107 236.827 438.04C235.035 436.952 233.627 435.427 232.603 433.464C231.6 431.48 231.099 429.144 231.099 426.456C231.099 423.811 231.6 421.507 232.603 419.544C233.627 417.581 235.035 416.067 236.827 415C238.64 413.912 240.731 413.368 243.099 413.368C244.613 413.368 245.989 413.581 247.227 414.008C248.464 414.435 249.52 415.021 250.395 415.768C251.269 416.515 251.909 417.368 252.315 418.328L251.259 419.288C250.341 417.645 249.179 416.504 247.771 415.864C246.363 415.224 244.805 414.904 243.099 414.904C241.008 414.904 239.173 415.384 237.595 416.344C236.037 417.304 234.821 418.648 233.947 420.376C233.072 422.104 232.635 424.131 232.635 426.456C232.635 428.824 233.072 430.883 233.947 432.632C234.821 434.381 236.048 435.736 237.627 436.696C239.205 437.656 241.04 438.136 243.131 438.136C244.795 438.136 246.32 437.805 247.707 437.144C249.115 436.483 250.373 435.309 251.483 433.624L252.475 434.648ZM250.107 432.248C249.275 433.528 248.283 434.477 247.131 435.096C245.979 435.693 244.816 435.992 243.643 435.992C242.235 435.992 240.933 435.64 239.739 434.936C238.565 434.232 237.627 433.176 236.923 431.768C236.219 430.36 235.867 428.589 235.867 426.456C235.867 424.408 236.219 422.68 236.923 421.272C237.627 419.864 238.565 418.808 239.739 418.104C240.912 417.379 242.203 417.016 243.611 417.016C244.741 417.016 245.872 417.315 247.003 417.912C248.133 418.488 249.061 419.405 249.787 420.664L248.667 421.688C248.411 421.112 248.016 420.589 247.483 420.12C246.971 419.629 246.373 419.245 245.691 418.968C245.008 418.691 244.315 418.552 243.611 418.552C242.459 418.552 241.413 418.861 240.475 419.48C239.536 420.099 238.789 420.995 238.235 422.168C237.68 423.341 237.403 424.771 237.403 426.456C237.403 428.205 237.68 429.677 238.235 430.872C238.789 432.067 239.536 432.963 240.475 433.56C241.413 434.157 242.469 434.456 243.643 434.456C244.347 434.456 245.04 434.317 245.722 434.04C246.427 433.741 247.067 433.347 247.642 432.856C248.219 432.344 248.656 431.757 248.955 431.096L250.107 432.248ZM267.004 414.04H276.668C278.95 414.04 280.977 414.552 282.748 415.576C284.518 416.579 285.905 418.019 286.908 419.896C287.91 421.752 288.412 423.96 288.412 426.52C288.412 429.101 287.91 431.331 286.908 433.208C285.926 435.064 284.561 436.493 282.812 437.496C281.062 438.499 279.036 439 276.732 439H267.004V414.04ZM276.732 437.464C278.737 437.464 280.497 437.027 282.012 436.152C283.548 435.256 284.742 433.987 285.596 432.344C286.449 430.701 286.876 428.76 286.876 426.52C286.876 424.28 286.438 422.339 285.564 420.696C284.689 419.053 283.484 417.795 281.948 416.92C280.433 416.024 278.673 415.576 276.668 415.576H268.54V437.464H276.732ZM271.356 417.464H276.06C277.574 417.464 278.929 417.795 280.124 418.456C281.318 419.117 282.268 420.12 282.972 421.464C283.676 422.808 284.028 424.493 284.028 426.52C284.028 428.483 283.686 430.136 283.003 431.48C282.321 432.824 281.382 433.848 280.188 434.552C279.014 435.235 277.66 435.576 276.124 435.576H271.356V417.464ZM276.124 434.04C278.001 434.04 279.526 433.389 280.7 432.088C281.894 430.787 282.492 428.931 282.492 426.52C282.492 424.856 282.214 423.469 281.66 422.36C281.105 421.229 280.337 420.387 279.356 419.832C278.396 419.277 277.297 419 276.06 419H272.892V434.04H276.124ZM292.754 414.04H310.034V415.576H294.29V437.464H310.674V439H292.754V414.04ZM297.042 417.368H310.034V418.904H298.578V423.832H308.402V425.368H297.042V417.368ZM297.042 427.064H308.402V428.6H298.578V434.136H310.674V435.672H297.042V427.064ZM320.128 427.768C318.229 427.085 316.789 426.211 315.808 425.144C314.848 424.077 314.368 422.616 314.368 420.76C314.368 419.416 314.72 418.189 315.424 417.08C316.128 415.949 317.141 415.053 318.464 414.392C319.787 413.709 321.376 413.368 323.232 413.368C327.776 413.368 330.763 415.021 332.192 418.328L330.976 419.192C330.123 417.485 329.045 416.344 327.744 415.768C326.464 415.192 324.96 414.904 323.232 414.904C321.717 414.904 320.405 415.171 319.296 415.704C318.208 416.216 317.365 416.92 316.768 417.816C316.192 418.691 315.904 419.672 315.904 420.76C315.904 422.253 316.309 423.416 317.12 424.248C317.931 425.08 319.104 425.773 320.64 426.328L324.256 427.608C325.877 428.184 326.976 428.856 327.552 429.624C328.128 430.371 328.416 431.224 328.416 432.184C328.416 433.336 328.021 434.296 327.232 435.064C326.443 435.832 325.131 436.216 323.296 436.216C321.952 436.216 320.661 435.8 319.424 434.968C318.187 434.115 317.163 432.803 316.352 431.032L317.664 430.136C318.219 431.565 319.019 432.685 320.064 433.496C321.109 434.285 322.187 434.68 323.296 434.68C324.533 434.68 325.44 434.456 326.016 434.008C326.592 433.56 326.88 432.952 326.88 432.184C326.88 431.501 326.645 430.915 326.176 430.424C325.707 429.912 324.896 429.453 323.744 429.048L320.128 427.768ZM322.208 424.28C320.821 423.811 319.851 423.245 319.296 422.584C318.741 421.923 318.464 421.208 318.464 420.44C318.464 419.779 318.613 419.16 318.912 418.584C319.232 418.008 319.755 417.539 320.48 417.176C321.227 416.813 322.219 416.632 323.456 416.632C324.715 416.632 325.845 416.952 326.848 417.592C327.851 418.232 328.651 419.181 329.248 420.44L327.968 421.368C327.584 420.344 326.987 419.555 326.176 419C325.365 418.445 324.459 418.168 323.456 418.168C322.219 418.168 321.333 418.392 320.8 418.84C320.267 419.267 320 419.8 320 420.44C320 421.421 320.896 422.211 322.688 422.808L326.656 424.12C328.555 424.739 330.059 425.645 331.168 426.84C332.299 428.035 332.864 429.603 332.864 431.544C332.864 434.125 332.032 436.12 330.368 437.528C328.725 438.936 326.379 439.64 323.328 439.64C320.747 439.64 318.603 439.064 316.896 437.912C315.189 436.76 313.984 435.16 313.28 433.112L314.432 432.344C315.371 434.456 316.587 435.949 318.08 436.824C319.573 437.699 321.323 438.136 323.328 438.136C325.867 438.136 327.829 437.571 329.216 436.44C330.624 435.309 331.328 433.677 331.328 431.544C331.328 429.965 330.848 428.707 329.888 427.768C328.949 426.829 327.712 426.104 326.176 425.592L322.208 424.28ZM342.33 414.04H343.866V439H342.33V414.04ZM337.85 414.04H339.386V439H337.85V414.04ZM359.709 426.264V424.728H370.205V435.352C369.351 436.717 368.135 437.773 366.557 438.52C364.978 439.267 363.058 439.64 360.797 439.64C358.237 439.64 356.029 439.107 354.173 438.04C352.317 436.973 350.877 435.459 349.853 433.496C348.85 431.512 348.349 429.165 348.349 426.456C348.349 423.832 348.839 421.539 349.821 419.576C350.823 417.613 352.21 416.088 353.981 415C355.751 413.912 357.789 413.368 360.093 413.368C362.503 413.368 364.541 413.816 366.205 414.712C367.89 415.587 369.095 416.771 369.821 418.264L368.797 419.224C367.879 417.645 366.674 416.536 365.181 415.896C363.687 415.235 361.991 414.904 360.093 414.904C358.066 414.904 356.285 415.384 354.749 416.344C353.213 417.304 352.018 418.659 351.165 420.408C350.311 422.136 349.885 424.152 349.885 426.456C349.885 428.845 350.322 430.915 351.197 432.664C352.093 434.413 353.351 435.768 354.973 436.728C356.615 437.667 358.557 438.136 360.797 438.136C364.509 438.136 367.133 437.059 368.669 434.904V426.264H359.709ZM359.709 429.592V428.056H366.717V433.464C366.162 434.36 365.394 435.075 364.413 435.608C363.431 436.141 362.226 436.408 360.797 436.408C359.367 436.408 358.045 436.024 356.829 435.256C355.613 434.488 354.642 433.368 353.917 431.896C353.191 430.403 352.829 428.589 352.829 426.456C352.829 424.365 353.17 422.605 353.853 421.176C354.557 419.725 355.506 418.627 356.701 417.88C357.895 417.133 359.239 416.76 360.733 416.76C361.991 416.76 363.218 417.059 364.413 417.656C365.607 418.232 366.61 419.192 367.421 420.536L366.237 421.656C365.682 420.611 364.935 419.789 363.997 419.192C363.079 418.595 361.991 418.296 360.733 418.296C359.495 418.296 358.397 418.616 357.437 419.256C356.477 419.896 355.719 420.824 355.165 422.04C354.631 423.256 354.365 424.728 354.365 426.456C354.365 428.227 354.653 429.741 355.229 431C355.805 432.259 356.573 433.219 357.533 433.88C358.514 434.541 359.602 434.872 360.797 434.872C361.885 434.872 362.802 434.701 363.549 434.36C364.295 433.997 364.839 433.549 365.181 433.016V429.592H359.709ZM382.11 427.064C381.768 426.339 381.438 425.56 381.118 424.728C380.819 423.875 380.552 423.064 380.318 422.296C380.104 421.507 379.934 420.856 379.806 420.344H379.71C379.944 421.581 380.126 423.011 380.254 424.632C380.382 426.232 380.446 427.949 380.446 429.784V439H378.91V418.616H379.774L388.766 437.464H393.566V414.04H395.102V439H387.806L382.11 427.064ZM380.99 415.576H376.446V439H374.91V414.04H381.95L387.678 425.848C388.104 426.723 388.499 427.619 388.862 428.536C389.224 429.432 389.523 430.243 389.758 430.968C390.014 431.672 390.163 432.173 390.206 432.472H390.366C390.088 430.893 389.886 429.347 389.758 427.832C389.63 426.317 389.566 424.941 389.566 423.704V414.04H391.102V434.2H390.046L380.99 415.576Z" fill="#141B23"/>
<path d="M189.88 482.04V497.848C189.88 499.341 189.613 500.557 189.08 501.496C188.568 502.435 187.864 503.128 186.968 503.576C186.093 504.024 185.091 504.248 183.96 504.248C182.253 504.248 180.867 503.747 179.8 502.744C178.733 501.72 178.2 500.088 178.2 497.848V482.04H179.736V497.848C179.736 499.533 180.12 500.771 180.888 501.56C181.656 502.328 182.68 502.712 183.96 502.712C185.219 502.712 186.264 502.328 187.096 501.56C187.928 500.771 188.344 499.533 188.344 497.848V482.04H189.88ZM194.072 482.04V498.36C194.072 500.216 193.635 501.837 192.76 503.224C191.885 504.611 190.691 505.699 189.176 506.488C187.661 507.256 185.923 507.64 183.96 507.64C181.955 507.64 180.184 507.256 178.648 506.488C177.133 505.699 175.949 504.611 175.096 503.224C174.243 501.816 173.816 500.195 173.816 498.36V482.04H175.352V498.36C175.352 499.896 175.715 501.251 176.44 502.424C177.165 503.597 178.179 504.515 179.48 505.176C180.781 505.816 182.275 506.136 183.96 506.136C185.603 506.136 187.064 505.816 188.344 505.176C189.645 504.536 190.669 503.629 191.416 502.456C192.163 501.283 192.536 499.917 192.536 498.36V482.04H194.072ZM204.299 482.04H205.835V507H204.299V482.04ZM199.819 482.04H201.355V507H199.819V482.04ZM220.301 481.304H221.869L213.005 507.704H211.437L220.301 481.304ZM217.293 481.304H218.861L209.997 507.704H208.461L217.293 481.304ZM240.474 482.04V497.848C240.474 499.341 240.207 500.557 239.674 501.496C239.162 502.435 238.458 503.128 237.562 503.576C236.687 504.024 235.684 504.248 234.554 504.248C232.847 504.248 231.46 503.747 230.394 502.744C229.327 501.72 228.794 500.088 228.794 497.848V482.04H230.33V497.848C230.33 499.533 230.714 500.771 231.482 501.56C232.25 502.328 233.274 502.712 234.554 502.712C235.812 502.712 236.858 502.328 237.69 501.56C238.522 500.771 238.938 499.533 238.938 497.848V482.04H240.474ZM244.666 482.04V498.36C244.666 500.216 244.228 501.837 243.354 503.224C242.479 504.611 241.284 505.699 239.77 506.488C238.255 507.256 236.516 507.64 234.554 507.64C232.548 507.64 230.778 507.256 229.242 506.488C227.727 505.699 226.543 504.611 225.69 503.224C224.836 501.816 224.41 500.195 224.41 498.36V482.04H225.946V498.36C225.946 499.896 226.308 501.251 227.034 502.424C227.759 503.597 228.772 504.515 230.074 505.176C231.375 505.816 232.868 506.136 234.554 506.136C236.196 506.136 237.658 505.816 238.938 505.176C240.239 504.536 241.263 503.629 242.01 502.456C242.756 501.283 243.13 499.917 243.13 498.36V482.04H244.666ZM254.413 482.04L258.381 489.528L262.349 482.04H264.045L258.381 492.76L252.717 482.04H254.413ZM259.949 494.072L266.925 482.04H268.717L261.709 494.104L269.101 507H267.341L259.949 494.072ZM254.989 494.328L247.917 482.04H249.709L256.781 494.328L249.485 507H247.693L254.989 494.328ZM258.285 499.096L254.029 507H252.269L258.317 495.832L264.141 507H262.445L258.285 499.096ZM272.225 501.08H273.761V507H272.225V501.08ZM273.536 510.936C274.518 510.424 275.169 509.805 275.489 509.08C275.83 508.355 276.001 507.501 276.001 506.52V501.08H277.536V506.52C277.536 507.672 277.313 508.707 276.865 509.624C276.438 510.563 275.713 511.341 274.689 511.96L273.536 510.936ZM305.999 483.576H300.815L292.975 507H291.375L299.695 482.04H307.119L315.439 507H313.775L305.999 483.576ZM302.415 486.104H304.271L308.111 497.784H298.575L302.415 486.104ZM305.999 496.248C305.892 495.907 305.722 495.395 305.487 494.712C305.252 494.029 304.996 493.272 304.719 492.44C304.442 491.587 304.186 490.744 303.951 489.912C303.716 489.059 303.546 488.301 303.439 487.64H303.247C303.14 488.28 302.97 489.027 302.735 489.88C302.522 490.712 302.276 491.555 301.999 492.408C301.722 493.24 301.466 494.008 301.231 494.712C300.996 495.395 300.826 495.907 300.719 496.248H305.999ZM307.599 501.144H299.151L297.167 507H295.567L298.063 499.608H308.719L311.119 507H309.519L307.599 501.144ZM325.454 495.064C325.112 494.339 324.782 493.56 324.462 492.728C324.163 491.875 323.896 491.064 323.661 490.296C323.448 489.507 323.278 488.856 323.15 488.344H323.054C323.288 489.581 323.47 491.011 323.598 492.632C323.726 494.232 323.79 495.949 323.79 497.784V507H322.254V486.616H323.118L332.11 505.464H336.91V482.04H338.446V507H331.15L325.454 495.064ZM324.334 483.576H319.79V507H318.254V482.04H325.294L331.022 493.848C331.448 494.723 331.843 495.619 332.206 496.536C332.568 497.432 332.867 498.243 333.102 498.968C333.358 499.672 333.507 500.173 333.55 500.472H333.71C333.432 498.893 333.23 497.347 333.102 495.832C332.974 494.317 332.91 492.941 332.91 491.704V482.04H334.446V502.2H333.39L324.334 483.576ZM348.674 482.04H350.21V507H348.674V482.04ZM344.194 482.04H345.73V507H344.194V482.04ZM379.204 483.576H373.508L369.092 502.456H367.524L362.852 483.576H357.508V507H355.972V482.04H364.068L367.684 496.632C367.812 497.101 367.908 497.656 367.972 498.296C368.058 498.936 368.122 499.501 368.164 499.992C368.207 500.483 368.239 500.76 368.26 500.824H368.356C368.378 500.76 368.41 500.483 368.452 499.992C368.495 499.48 368.548 498.915 368.612 498.296C368.676 497.656 368.762 497.112 368.868 496.664L372.292 482.04H380.74V507H379.204V483.576ZM375.396 497.08C375.396 496.632 375.407 496.045 375.428 495.32C375.45 494.573 375.482 493.795 375.524 492.984C375.567 492.152 375.599 491.352 375.62 490.584C375.663 489.795 375.695 489.123 375.716 488.568C375.759 487.992 375.78 487.619 375.78 487.448H375.588C375.588 487.64 375.546 487.992 375.46 488.504C375.396 488.995 375.311 489.571 375.204 490.232C375.119 490.872 375.012 491.512 374.884 492.152C374.778 492.771 374.671 493.283 374.564 493.688L371.204 507H365.316L361.732 493.72C361.647 493.421 361.551 492.995 361.444 492.44C361.338 491.864 361.231 491.256 361.124 490.616C361.018 489.955 360.922 489.347 360.836 488.792C360.751 488.216 360.687 487.768 360.644 487.448H360.452C360.474 487.64 360.495 488.013 360.516 488.568C360.559 489.123 360.591 489.784 360.612 490.552C360.655 491.299 360.698 492.088 360.74 492.92C360.783 493.752 360.815 494.541 360.836 495.288C360.858 496.035 360.868 496.664 360.868 497.176V507H359.332V485.784H361.188L366.5 505.464H369.988L374.948 485.784H376.932V507H375.396V497.08ZM398.187 483.576H393.003L385.163 507H383.562L391.883 482.04H399.307L407.627 507H405.963L398.187 483.576ZM394.603 486.104H396.459L400.299 497.784H390.763L394.603 486.104ZM398.187 496.248C398.08 495.907 397.909 495.395 397.675 494.712C397.44 494.029 397.184 493.272 396.907 492.44C396.629 491.587 396.373 490.744 396.139 489.912C395.904 489.059 395.733 488.301 395.627 487.64H395.435C395.328 488.28 395.157 489.027 394.923 489.88C394.709 490.712 394.464 491.555 394.187 492.408C393.909 493.24 393.653 494.008 393.419 494.712C393.184 495.395 393.013 495.907 392.907 496.248H398.187ZM399.787 501.144H391.339L389.355 507H387.755L390.251 499.608H400.907L403.307 507H401.707L399.787 501.144ZM408.137 482.04H427.369V483.576H408.137V482.04ZM419.177 485.368H427.369V486.904H420.713V507H419.177V485.368ZM414.761 486.904H408.137V485.368H416.297V507H414.761V486.904ZM435.299 482.04H436.835V507H435.299V482.04ZM430.819 482.04H432.355V507H430.819V482.04ZM452.837 507.64C450.533 507.64 448.517 507.107 446.789 506.04C445.061 504.973 443.717 503.459 442.757 501.496C441.797 499.512 441.317 497.165 441.317 494.456C441.317 491.811 441.797 489.507 442.757 487.544C443.717 485.581 445.061 484.067 446.789 483C448.517 481.912 450.533 481.368 452.837 481.368C455.141 481.368 457.147 481.912 458.853 483C460.581 484.088 461.915 485.613 462.853 487.576C463.792 489.539 464.261 491.832 464.261 494.456C464.261 497.165 463.792 499.512 462.853 501.496C461.915 503.459 460.581 504.973 458.853 506.04C457.147 507.107 455.141 507.64 452.837 507.64ZM452.837 506.136C454.864 506.136 456.613 505.656 458.085 504.696C459.557 503.736 460.699 502.381 461.509 500.632C462.32 498.883 462.725 496.824 462.725 494.456C462.725 492.152 462.32 490.136 461.509 488.408C460.699 486.68 459.557 485.336 458.085 484.376C456.613 483.395 454.864 482.904 452.837 482.904C450.811 482.904 449.051 483.384 447.557 484.344C446.064 485.304 444.901 486.648 444.069 488.376C443.259 490.104 442.853 492.131 442.853 494.456C442.853 496.824 443.259 498.883 444.069 500.632C444.901 502.381 446.064 503.736 447.557 504.696C449.051 505.656 450.811 506.136 452.837 506.136ZM452.837 504.184C451.557 504.184 450.373 503.811 449.285 503.064C448.219 502.317 447.365 501.229 446.725 499.8C446.085 498.349 445.765 496.568 445.765 494.456C445.765 492.323 446.107 490.552 446.789 489.144C447.472 487.715 448.347 486.648 449.413 485.944C450.501 485.219 451.643 484.856 452.837 484.856C454.117 484.856 455.28 485.219 456.325 485.944C457.392 486.648 458.235 487.715 458.853 489.144C459.493 490.552 459.813 492.323 459.813 494.456C459.813 496.568 459.483 498.349 458.821 499.8C458.16 501.229 457.296 502.317 456.229 503.064C455.184 503.811 454.053 504.184 452.837 504.184ZM452.837 502.648C453.84 502.648 454.747 502.328 455.557 501.688C456.389 501.048 457.051 500.12 457.541 498.904C458.032 497.667 458.277 496.184 458.277 494.456C458.277 491.853 457.765 489.859 456.741 488.472C455.717 487.085 454.416 486.392 452.837 486.392C451.856 486.392 450.939 486.701 450.085 487.32C449.253 487.939 448.581 488.845 448.069 490.04C447.557 491.235 447.301 492.707 447.301 494.456C447.301 496.184 447.536 497.667 448.005 498.904C448.496 500.12 449.157 501.048 449.989 501.688C450.843 502.328 451.792 502.648 452.837 502.648ZM475.891 495.064C475.55 494.339 475.219 493.56 474.899 492.728C474.6 491.875 474.334 491.064 474.099 490.296C473.886 489.507 473.715 488.856 473.587 488.344H473.491C473.726 489.581 473.907 491.011 474.035 492.632C474.163 494.232 474.227 495.949 474.227 497.784V507H472.691V486.616H473.555L482.547 505.464H487.347V482.04H488.883V507H481.587L475.891 495.064ZM474.771 483.576H470.227V507H468.691V482.04H475.731L481.459 493.848C481.886 494.723 482.28 495.619 482.643 496.536C483.006 497.432 483.304 498.243 483.539 498.968C483.795 499.672 483.944 500.173 483.987 500.472H484.147C483.87 498.893 483.667 497.347 483.539 495.832C483.411 494.317 483.347 492.941 483.347 491.704V482.04H484.883V502.2H483.827L474.771 483.576Z" fill="#141B23"/>
<path d="M23.992 357.272H30.688C33.088 357.272 34.972 356.564 36.34 355.148C37.708 353.732 38.392 351.824 38.392 349.424C38.392 347.912 38.08 346.58 37.456 345.428C36.832 344.252 35.956 343.328 34.828 342.656C33.7 341.984 32.356 341.648 30.796 341.648H20.896V368H19.168V339.92H30.796C32.692 339.92 34.336 340.328 35.728 341.144C37.12 341.96 38.2 343.088 38.968 344.528C39.736 345.944 40.12 347.576 40.12 349.424C40.12 352.376 39.28 354.716 37.6 356.444C35.92 358.148 33.616 359 30.688 359H25.72V368H23.992V357.272ZM23.884 343.7H29.32C31.024 343.7 32.44 344.168 33.568 345.104C34.72 346.04 35.296 347.492 35.296 349.46C35.296 350.756 35.032 351.836 34.504 352.7C33.976 353.54 33.256 354.176 32.344 354.608C31.456 355.016 30.46 355.22 29.356 355.22H23.884V343.7ZM29.356 353.492C30.532 353.492 31.528 353.168 32.344 352.52C33.16 351.848 33.568 350.828 33.568 349.46C33.568 348.068 33.16 347.048 32.344 346.4C31.528 345.752 30.52 345.428 29.32 345.428H25.612V353.492H29.356ZM58.5129 355.112C59.9529 354.584 61.0689 354.008 61.8609 353.384C62.6769 352.76 63.2409 352.028 63.5529 351.188C63.8889 350.348 64.0569 349.364 64.0569 348.236C64.0569 346.892 63.7329 345.728 63.0849 344.744C62.4609 343.76 61.5969 343.004 60.4929 342.476C59.3889 341.924 58.1169 341.648 56.6769 341.648H46.5249V368H44.7969V339.92H56.6769C58.4769 339.92 60.0609 340.268 61.4289 340.964C62.7969 341.66 63.8649 342.632 64.6329 343.88C65.4009 345.104 65.7849 346.556 65.7849 348.236C65.7849 350.42 65.3649 352.136 64.5249 353.384C63.7089 354.608 62.5329 355.496 60.9969 356.048L67.6569 368H65.6049L58.5129 355.112ZM49.5489 343.664H55.4529C57.0849 343.664 58.3929 344.108 59.3769 344.996C60.3609 345.86 60.8529 347.048 60.8529 348.56C60.8529 350.216 60.3609 351.5 59.3769 352.412C58.4169 353.324 57.1209 353.78 55.4889 353.78H49.5489V343.664ZM55.4889 352.052C56.5929 352.052 57.4689 351.752 58.1169 351.152C58.7889 350.528 59.1249 349.664 59.1249 348.56C59.1249 347.552 58.7769 346.772 58.0809 346.22C57.4089 345.668 56.5329 345.392 55.4529 345.392H51.2769V352.052H55.4889ZM54.9129 357.2H51.2409V368H49.5129V355.472H56.0289L61.7889 368H59.8809L54.9129 357.2ZM82.895 368.72C80.303 368.72 78.035 368.12 76.091 366.92C74.147 365.72 72.635 364.016 71.555 361.808C70.475 359.576 69.935 356.936 69.935 353.888C69.935 350.912 70.475 348.32 71.555 346.112C72.635 343.904 74.147 342.2 76.091 341C78.035 339.776 80.303 339.164 82.895 339.164C85.487 339.164 87.743 339.776 89.663 341C91.607 342.224 93.107 343.94 94.163 346.148C95.219 348.356 95.747 350.936 95.747 353.888C95.747 356.936 95.219 359.576 94.163 361.808C93.107 364.016 91.607 365.72 89.663 366.92C87.743 368.12 85.487 368.72 82.895 368.72ZM82.895 367.028C85.175 367.028 87.143 366.488 88.799 365.408C90.455 364.328 91.739 362.804 92.651 360.836C93.563 358.868 94.019 356.552 94.019 353.888C94.019 351.296 93.563 349.028 92.651 347.084C91.739 345.14 90.455 343.628 88.799 342.548C87.143 341.444 85.175 340.892 82.895 340.892C80.615 340.892 78.635 341.432 76.955 342.512C75.275 343.592 73.967 345.104 73.031 347.048C72.119 348.992 71.663 351.272 71.663 353.888C71.663 356.552 72.119 358.868 73.031 360.836C73.967 362.804 75.275 364.328 76.955 365.408C78.635 366.488 80.615 367.028 82.895 367.028ZM82.895 364.832C81.455 364.832 80.123 364.412 78.899 363.572C77.699 362.732 76.739 361.508 76.019 359.9C75.299 358.268 74.939 356.264 74.939 353.888C74.939 351.488 75.323 349.496 76.091 347.912C76.859 346.304 77.843 345.104 79.043 344.312C80.267 343.496 81.551 343.088 82.895 343.088C84.335 343.088 85.643 343.496 86.819 344.312C88.019 345.104 88.967 346.304 89.663 347.912C90.383 349.496 90.743 351.488 90.743 353.888C90.743 356.264 90.371 358.268 89.627 359.9C88.883 361.508 87.911 362.732 86.711 363.572C85.535 364.412 84.263 364.832 82.895 364.832ZM82.895 363.104C84.023 363.104 85.043 362.744 85.955 362.024C86.891 361.304 87.635 360.26 88.187 358.892C88.739 357.5 89.015 355.832 89.015 353.888C89.015 350.96 88.439 348.716 87.287 347.156C86.135 345.596 84.671 344.816 82.895 344.816C81.791 344.816 80.759 345.164 79.799 345.86C78.863 346.556 78.107 347.576 77.531 348.92C76.955 350.264 76.667 351.92 76.667 353.888C76.667 355.832 76.931 357.5 77.459 358.892C78.011 360.26 78.755 361.304 79.691 362.024C80.651 362.744 81.719 363.104 82.895 363.104ZM112.071 353.672V351.944H123.879V363.896C122.919 365.432 121.551 366.62 119.775 367.46C117.999 368.3 115.839 368.72 113.295 368.72C110.415 368.72 107.931 368.12 105.843 366.92C103.755 365.72 102.135 364.016 100.983 361.808C99.8545 359.576 99.2905 356.936 99.2905 353.888C99.2905 350.936 99.8425 348.356 100.947 346.148C102.075 343.94 103.635 342.224 105.627 341C107.619 339.776 109.911 339.164 112.503 339.164C115.215 339.164 117.507 339.668 119.379 340.676C121.275 341.66 122.631 342.992 123.447 344.672L122.295 345.752C121.263 343.976 119.907 342.728 118.227 342.008C116.547 341.264 114.639 340.892 112.503 340.892C110.223 340.892 108.219 341.432 106.491 342.512C104.763 343.592 103.419 345.116 102.459 347.084C101.499 349.028 101.019 351.296 101.019 353.888C101.019 356.576 101.511 358.904 102.495 360.872C103.503 362.84 104.919 364.364 106.743 365.444C108.591 366.5 110.775 367.028 113.295 367.028C117.471 367.028 120.423 365.816 122.151 363.392V353.672H112.071ZM112.071 357.416V355.688H119.955V361.772C119.331 362.78 118.467 363.584 117.363 364.184C116.259 364.784 114.903 365.084 113.295 365.084C111.687 365.084 110.199 364.652 108.831 363.788C107.463 362.924 106.371 361.664 105.555 360.008C104.739 358.328 104.331 356.288 104.331 353.888C104.331 351.536 104.715 349.556 105.483 347.948C106.275 346.316 107.343 345.08 108.687 344.24C110.031 343.4 111.543 342.98 113.223 342.98C114.639 342.98 116.019 343.316 117.363 343.988C118.707 344.636 119.835 345.716 120.747 347.228L119.415 348.488C118.791 347.312 117.951 346.388 116.895 345.716C115.863 345.044 114.639 344.708 113.223 344.708C111.831 344.708 110.595 345.068 109.515 345.788C108.435 346.508 107.583 347.552 106.959 348.92C106.359 350.288 106.059 351.944 106.059 353.888C106.059 355.88 106.383 357.584 107.031 359C107.679 360.416 108.543 361.496 109.623 362.24C110.727 362.984 111.951 363.356 113.295 363.356C114.519 363.356 115.551 363.164 116.391 362.78C117.231 362.372 117.843 361.868 118.227 361.268V357.416H112.071ZM142.888 355.112C144.328 354.584 145.444 354.008 146.236 353.384C147.052 352.76 147.616 352.028 147.928 351.188C148.264 350.348 148.432 349.364 148.432 348.236C148.432 346.892 148.108 345.728 147.46 344.744C146.836 343.76 145.972 343.004 144.868 342.476C143.764 341.924 142.492 341.648 141.052 341.648H130.9V368H129.172V339.92H141.052C142.852 339.92 144.436 340.268 145.804 340.964C147.172 341.66 148.24 342.632 149.008 343.88C149.776 345.104 150.16 346.556 150.16 348.236C150.16 350.42 149.74 352.136 148.9 353.384C148.084 354.608 146.908 355.496 145.372 356.048L152.032 368H149.98L142.888 355.112ZM133.924 343.664H139.828C141.46 343.664 142.768 344.108 143.752 344.996C144.736 345.86 145.228 347.048 145.228 348.56C145.228 350.216 144.736 351.5 143.752 352.412C142.792 353.324 141.496 353.78 139.864 353.78H133.924V343.664ZM139.864 352.052C140.968 352.052 141.844 351.752 142.492 351.152C143.164 350.528 143.5 349.664 143.5 348.56C143.5 347.552 143.152 346.772 142.456 346.22C141.784 345.668 140.908 345.392 139.828 345.392H135.652V352.052H139.864ZM139.288 357.2H135.616V368H133.888V355.472H140.404L146.164 368H144.256L139.288 357.2ZM169.034 341.648H163.202L154.382 368H152.582L161.942 339.92H170.294L179.654 368H177.782L169.034 341.648ZM165.002 344.492H167.09L171.41 357.632H160.682L165.002 344.492ZM169.034 355.904C168.914 355.52 168.722 354.944 168.458 354.176C168.194 353.408 167.906 352.556 167.594 351.62C167.282 350.66 166.994 349.712 166.73 348.776C166.466 347.816 166.274 346.964 166.154 346.22H165.938C165.818 346.94 165.626 347.78 165.362 348.74C165.122 349.676 164.846 350.624 164.534 351.584C164.222 352.52 163.934 353.384 163.67 354.176C163.406 354.944 163.214 355.52 163.094 355.904H169.034ZM170.834 361.412H161.33L159.098 368H157.298L160.106 359.684H172.094L174.794 368H172.994L170.834 361.412ZM208.956 341.648H202.548L197.58 362.888H195.816L190.56 341.648H184.548V368H182.82V339.92H191.928L195.996 356.336C196.14 356.864 196.248 357.488 196.32 358.208C196.416 358.928 196.488 359.564 196.536 360.116C196.584 360.668 196.62 360.98 196.644 361.052H196.752C196.776 360.98 196.812 360.668 196.86 360.116C196.908 359.54 196.968 358.904 197.04 358.208C197.112 357.488 197.208 356.876 197.328 356.372L201.18 339.92H210.684V368H208.956V341.648ZM204.672 356.84C204.672 356.336 204.684 355.676 204.708 354.86C204.732 354.02 204.768 353.144 204.816 352.232C204.864 351.296 204.9 350.396 204.924 349.532C204.972 348.644 205.008 347.888 205.032 347.264C205.08 346.616 205.104 346.196 205.104 346.004H204.888C204.888 346.22 204.84 346.616 204.744 347.192C204.672 347.744 204.576 348.392 204.456 349.136C204.36 349.856 204.24 350.576 204.096 351.296C203.976 351.992 203.856 352.568 203.736 353.024L199.956 368H193.332L189.3 353.06C189.204 352.724 189.096 352.244 188.976 351.62C188.856 350.972 188.736 350.288 188.616 349.568C188.496 348.824 188.388 348.14 188.292 347.516C188.196 346.868 188.124 346.364 188.076 346.004H187.86C187.884 346.22 187.908 346.64 187.932 347.264C187.98 347.888 188.016 348.632 188.04 349.496C188.088 350.336 188.136 351.224 188.184 352.16C188.232 353.096 188.268 353.984 188.292 354.824C188.316 355.664 188.328 356.372 188.328 356.948V368H186.6V344.132H188.688L194.664 366.272H198.588L204.168 344.132H206.4V368H204.672V356.84ZM243.163 341.648H236.755L231.787 362.888H230.023L224.767 341.648H218.755V368H217.027V339.92H226.135L230.203 356.336C230.347 356.864 230.455 357.488 230.527 358.208C230.623 358.928 230.695 359.564 230.743 360.116C230.791 360.668 230.827 360.98 230.851 361.052H230.959C230.983 360.98 231.019 360.668 231.067 360.116C231.115 359.54 231.175 358.904 231.247 358.208C231.319 357.488 231.415 356.876 231.535 356.372L235.387 339.92H244.891V368H243.163V341.648ZM238.879 356.84C238.879 356.336 238.891 355.676 238.915 354.86C238.939 354.02 238.975 353.144 239.023 352.232C239.071 351.296 239.107 350.396 239.131 349.532C239.179 348.644 239.215 347.888 239.239 347.264C239.287 346.616 239.311 346.196 239.311 346.004H239.095C239.095 346.22 239.047 346.616 238.951 347.192C238.879 347.744 238.783 348.392 238.663 349.136C238.567 349.856 238.447 350.576 238.303 351.296C238.183 351.992 238.063 352.568 237.943 353.024L234.163 368H227.539L223.507 353.06C223.411 352.724 223.303 352.244 223.183 351.62C223.063 350.972 222.943 350.288 222.823 349.568C222.703 348.824 222.595 348.14 222.499 347.516C222.403 346.868 222.331 346.364 222.283 346.004H222.067C222.091 346.22 222.115 346.64 222.139 347.264C222.187 347.888 222.223 348.632 222.247 349.496C222.295 350.336 222.343 351.224 222.391 352.16C222.439 353.096 222.475 353.984 222.499 354.824C222.523 355.664 222.535 356.372 222.535 356.948V368H220.807V344.132H222.895L228.871 366.272H232.795L238.375 344.132H240.607V368H238.879V356.84ZM256.418 339.92H258.146V368H256.418V339.92ZM251.378 339.92H253.106V368H251.378V339.92ZM272.729 354.572C272.345 353.756 271.973 352.88 271.613 351.944C271.277 350.984 270.977 350.072 270.713 349.208C270.473 348.32 270.281 347.588 270.137 347.012H270.029C270.293 348.404 270.497 350.012 270.641 351.836C270.785 353.636 270.857 355.568 270.857 357.632V368H269.129V345.068H270.101L280.217 366.272H285.617V339.92H287.345V368H279.137L272.729 354.572ZM271.469 341.648H266.357V368H264.629V339.92H272.549L278.993 353.204C279.473 354.188 279.917 355.196 280.325 356.228C280.733 357.236 281.069 358.148 281.333 358.964C281.621 359.756 281.789 360.32 281.837 360.656H282.017C281.705 358.88 281.477 357.14 281.333 355.436C281.189 353.732 281.117 352.184 281.117 350.792V339.92H282.845V362.6H281.657L271.469 341.648ZM305.008 353.672V351.944H316.816V363.896C315.856 365.432 314.488 366.62 312.712 367.46C310.936 368.3 308.776 368.72 306.232 368.72C303.352 368.72 300.868 368.12 298.78 366.92C296.692 365.72 295.072 364.016 293.92 361.808C292.792 359.576 292.228 356.936 292.228 353.888C292.228 350.936 292.78 348.356 293.884 346.148C295.012 343.94 296.572 342.224 298.564 341C300.556 339.776 302.848 339.164 305.44 339.164C308.152 339.164 310.444 339.668 312.316 340.676C314.212 341.66 315.568 342.992 316.384 344.672L315.232 345.752C314.2 343.976 312.844 342.728 311.164 342.008C309.484 341.264 307.576 340.892 305.44 340.892C303.16 340.892 301.156 341.432 299.428 342.512C297.7 343.592 296.356 345.116 295.396 347.084C294.436 349.028 293.956 351.296 293.956 353.888C293.956 356.576 294.448 358.904 295.432 360.872C296.44 362.84 297.856 364.364 299.68 365.444C301.528 366.5 303.712 367.028 306.232 367.028C310.408 367.028 313.36 365.816 315.088 363.392V353.672H305.008ZM305.008 357.416V355.688H312.892V361.772C312.268 362.78 311.404 363.584 310.3 364.184C309.196 364.784 307.84 365.084 306.232 365.084C304.624 365.084 303.136 364.652 301.768 363.788C300.4 362.924 299.308 361.664 298.492 360.008C297.676 358.328 297.268 356.288 297.268 353.888C297.268 351.536 297.652 349.556 298.42 347.948C299.212 346.316 300.28 345.08 301.624 344.24C302.968 343.4 304.48 342.98 306.16 342.98C307.576 342.98 308.956 343.316 310.3 343.988C311.644 344.636 312.772 345.716 313.684 347.228L312.352 348.488C311.728 347.312 310.888 346.388 309.832 345.716C308.8 345.044 307.576 344.708 306.16 344.708C304.768 344.708 303.532 345.068 302.452 345.788C301.372 346.508 300.52 347.552 299.896 348.92C299.296 350.288 298.996 351.944 298.996 353.888C298.996 355.88 299.32 357.584 299.968 359C300.616 360.416 301.48 361.496 302.56 362.24C303.664 362.984 304.888 363.356 306.232 363.356C307.456 363.356 308.488 363.164 309.328 362.78C310.168 362.372 310.78 361.868 311.164 361.268V357.416H305.008Z" fill="#141B23"/>
<path d="M665.12 340.628H369.364C368.911 340.627 368.477 340.411 368.157 340.027C367.838 339.643 367.658 339.123 367.658 338.581C367.658 338.038 367.838 337.518 368.157 337.134C368.477 336.75 368.911 336.534 369.364 336.533H665.12C665.573 336.533 666.008 336.749 666.329 337.133C666.649 337.517 666.829 338.037 666.829 338.581C666.829 339.124 666.649 339.645 666.329 340.029C666.008 340.413 665.573 340.628 665.12 340.628Z" fill="#CCCCCC"/>
<path d="M665.12 353.938H369.364C369.139 353.938 368.917 353.885 368.709 353.782C368.502 353.68 368.313 353.529 368.155 353.339C367.996 353.148 367.87 352.923 367.784 352.674C367.698 352.426 367.654 352.16 367.654 351.891C367.654 351.622 367.698 351.355 367.784 351.107C367.87 350.859 367.996 350.633 368.155 350.443C368.313 350.253 368.502 350.102 368.709 349.999C368.917 349.896 369.139 349.843 369.364 349.843H665.12C665.344 349.843 665.567 349.896 665.774 349.999C665.981 350.102 666.17 350.253 666.329 350.443C666.487 350.633 666.613 350.859 666.699 351.107C666.785 351.355 666.829 351.622 666.829 351.891C666.829 352.16 666.785 352.426 666.699 352.674C666.613 352.923 666.487 353.148 666.329 353.339C666.17 353.529 665.981 353.68 665.774 353.782C665.567 353.885 665.344 353.938 665.12 353.938Z" fill="#CCCCCC"/>
<path d="M665.12 367.248H369.364C368.91 367.248 368.475 367.033 368.155 366.649C367.834 366.265 367.654 365.744 367.654 365.201C367.654 364.658 367.834 364.137 368.155 363.753C368.475 363.369 368.91 363.153 369.364 363.153H665.12C665.344 363.153 665.567 363.206 665.774 363.309C665.981 363.412 666.17 363.563 666.329 363.753C666.487 363.943 666.613 364.169 666.699 364.417C666.785 364.665 666.829 364.932 666.829 365.201C666.829 365.47 666.785 365.736 666.699 365.984C666.613 366.233 666.487 366.458 666.329 366.649C666.17 366.839 665.981 366.99 665.774 367.092C665.567 367.195 665.344 367.248 665.12 367.248Z" fill="#CCCCCC"/>
<path d="M671.949 221.239C670.327 221.236 668.767 220.495 667.583 219.165C666.4 217.836 665.683 216.018 665.577 214.079L664.628 196.72C664.517 194.693 665.083 192.696 666.201 191.168C667.32 189.641 668.899 188.708 670.592 188.575L784.131 179.669C785.921 179.528 787.716 179.812 789.415 180.502C791.113 181.193 792.681 182.277 794.029 183.694C795.378 185.111 796.48 186.831 797.273 188.758C798.066 190.685 798.535 192.78 798.652 194.924C798.769 197.067 798.533 199.218 797.956 201.252C797.38 203.286 796.474 205.164 795.292 206.78C794.109 208.395 792.672 209.715 791.064 210.665C789.455 211.615 787.706 212.176 785.916 212.317L672.377 221.222C672.234 221.233 672.092 221.239 671.949 221.239Z" fill="#FD660E"/>
<path d="M694.338 223.477C692.684 223.474 691.095 222.704 689.904 221.329C688.713 219.955 688.013 218.081 687.949 216.102L687.14 190.175C687.109 189.169 687.243 188.167 687.535 187.223C687.827 186.28 688.272 185.415 688.843 184.678C689.415 183.94 690.102 183.345 690.865 182.926C691.629 182.506 692.453 182.271 693.293 182.234L786.659 178.054C788.354 177.978 790.005 178.712 791.249 180.094C792.492 181.476 793.226 183.393 793.29 185.424L794.099 211.35C794.13 212.356 793.996 213.359 793.704 214.302C793.411 215.245 792.967 216.11 792.395 216.847C791.824 217.585 791.137 218.18 790.374 218.6C789.61 219.019 788.785 219.254 787.946 219.292L694.579 223.471C694.499 223.475 694.418 223.477 694.338 223.477Z" fill="#2F2E41"/>
<path d="M803.748 462.474H789.225C787.529 462.471 785.903 461.664 784.704 460.227C783.505 458.791 782.831 456.844 782.829 454.813V309.829C782.831 307.798 783.505 305.85 784.704 304.414C785.903 302.978 787.529 302.17 789.225 302.168H803.748C805.444 302.17 807.07 302.978 808.269 304.414C809.468 305.85 810.142 307.798 810.144 309.829V454.813C810.142 456.844 809.468 458.791 808.269 460.227C807.07 461.664 805.444 462.471 803.748 462.474Z" fill="#2F2E41"/>
<path d="M739.285 385.836L726.865 376.819C725.416 375.765 724.375 374.064 723.972 372.092C723.568 370.119 723.834 368.035 724.711 366.297L787.454 242.311C788.335 240.575 789.754 239.329 791.401 238.845C793.048 238.362 794.788 238.68 796.239 239.731L808.658 248.748C810.108 249.803 811.148 251.503 811.552 253.475C811.956 255.448 811.69 257.532 810.813 259.27L748.07 383.256C747.189 384.992 745.77 386.238 744.123 386.722C742.476 387.206 740.736 386.887 739.285 385.836Z" fill="#2F2E41"/>
<path d="M781.69 150.861C809.406 150.861 831.873 123.95 831.873 90.7527C831.873 57.5557 809.406 30.6443 781.69 30.6443C753.975 30.6443 731.507 57.5557 731.507 90.7527C731.507 123.95 753.975 150.861 781.69 150.861Z" fill="#FD660E"/>
<path d="M754.527 111.276C752.912 110.641 751.43 109.599 750.18 108.22C749.352 107.236 748.714 106.047 748.31 104.736C747.905 103.425 747.746 102.024 747.841 100.631C747.894 99.6388 748.137 98.6745 748.552 97.8135C748.967 96.9525 749.543 96.2182 750.235 95.6679C752.029 94.2891 754.429 94.285 756.873 95.575L756.781 72.1095L758.749 72.0983L758.857 99.6844L757.341 98.542C755.583 97.2194 753.072 96.2885 751.297 97.6521C750.859 98.0124 750.496 98.489 750.236 99.0447C749.976 99.6005 749.827 100.221 749.8 100.857C749.734 101.894 749.855 102.936 750.155 103.913C750.455 104.889 750.927 105.777 751.54 106.515C753.713 109.001 756.883 109.779 760.499 110.474L760.187 112.801C758.266 112.496 756.371 111.986 754.527 111.276Z" fill="#2F2E41"/>
<path d="M736.494 70.924L736.237 73.2606L746.744 74.9228L747.002 72.5862L736.494 70.924Z" fill="#2F2E41"/>
<path d="M769.662 76.1692L769.404 78.5059L779.912 80.168L780.17 77.8314L769.662 76.1692Z" fill="#2F2E41"/>
<path d="M823.593 348.728H738.971C736.753 348.725 734.627 347.669 733.059 345.791C731.491 343.913 730.609 341.366 730.607 338.71L748.323 175.988C748.337 173.344 749.224 170.814 750.79 168.951C752.357 167.088 754.475 166.044 756.682 166.046H786.714C798.709 166.062 810.209 171.777 818.691 181.936C827.173 192.096 831.944 205.87 831.957 220.238V338.71C831.955 341.366 831.073 343.913 829.505 345.791C827.937 347.669 825.811 348.725 823.593 348.728Z" fill="#2F2E41"/>
<path d="M896.399 284.609C896.922 285.949 897.11 287.441 896.941 288.906C896.772 290.372 896.253 291.747 895.447 292.867L885.952 306.03C885.403 306.792 884.734 307.416 883.983 307.868C883.233 308.319 882.416 308.589 881.578 308.663C880.74 308.736 879.899 308.611 879.101 308.294C878.304 307.978 877.567 307.477 876.931 306.819L790.832 217.72C789.474 216.316 788.361 214.605 787.555 212.686C786.75 210.766 786.268 208.675 786.137 206.532C786.006 204.389 786.229 202.237 786.793 200.197C787.357 198.158 788.251 196.271 789.423 194.645C790.596 193.019 792.025 191.686 793.628 190.722C795.23 189.757 796.976 189.181 798.765 189.025C800.554 188.868 802.351 189.136 804.054 189.812C805.757 190.488 807.332 191.559 808.689 192.964L894.788 282.062C895.469 282.765 896.018 283.633 896.399 284.609Z" fill="#FD660E"/>
<path d="M877.396 255.206C877.918 256.546 878.106 258.038 877.938 259.503C877.769 260.968 877.25 262.344 876.444 263.464L860.226 285.948C859.116 287.483 857.543 288.428 855.852 288.576C854.16 288.724 852.489 288.062 851.205 286.736L780.505 213.573C779.87 212.915 779.348 212.114 778.971 211.215C778.594 210.316 778.369 209.337 778.307 208.334C778.246 207.33 778.351 206.322 778.615 205.367C778.879 204.412 779.298 203.529 779.847 202.768L796.064 180.284C796.613 179.523 797.282 178.899 798.032 178.447C798.783 177.995 799.6 177.725 800.438 177.652C801.276 177.579 802.117 177.704 802.915 178.02C803.712 178.337 804.449 178.838 805.085 179.496L875.785 252.658C876.466 253.362 877.015 254.23 877.396 255.206Z" fill="#2F2E41"/>
<path d="M782.629 55.1025C775.92 48.453 766.953 54.742 759.366 53.8494C752.108 52.9954 746.266 45.3447 744.674 37.1118C742.817 27.5067 746.843 17.7498 752.907 11.5968C759.549 4.85782 768.467 2.76365 776.965 3.78912C786.705 4.96441 795.678 10.1878 803.757 16.569C811.551 22.5321 818.744 29.5556 825.19 37.4992C830.967 44.8551 835.902 53.6676 837.593 63.7045C839.129 72.826 838.228 82.9931 833.833 90.8498C831.501 94.8786 828.341 98.1193 824.659 100.26C820.821 102.626 816.715 104.349 813.003 107.01C807.39 111.034 802.003 119.236 803.914 127.6C804.324 129.427 805.103 131.106 806.182 132.487C807.479 134.147 809.734 131.864 808.434 130.2C806.151 127.278 806.176 123.311 807.311 119.734C808.665 115.702 811.122 112.34 814.279 110.199C818.165 107.419 822.475 105.66 826.463 103.118C830.281 100.792 833.574 97.395 836.06 93.2168C840.752 85.0859 842.028 74.614 840.782 64.9818C839.433 54.5583 834.8 45.164 829.054 37.3339C822.801 28.8127 815.173 21.6527 807.394 15.2416C799.048 8.3624 789.855 2.5951 779.754 0.663378C770.998 -1.01112 761.557 0.357323 754.017 6.22711C746.978 11.7062 741.661 20.9767 741.28 31.2091C741.158 35.8637 742.075 40.4728 743.935 44.5623C745.794 48.6517 748.53 52.0738 751.861 54.4762C755.276 56.82 759.22 57.8202 763.135 57.3356C767.323 56.9188 771.495 55.2855 775.721 55.6164C777.633 55.7118 779.466 56.5509 780.944 58.0066C782.409 59.4594 784.082 56.5433 782.629 55.1025Z" fill="#2F2E41"/>
<path d="M723.62 368.392C723.638 368.259 723.659 368.126 723.683 367.993C723.858 367.009 724.195 366.076 724.673 365.248C725.151 364.421 725.761 363.715 726.469 363.172L738.673 353.743C740.099 352.644 741.831 352.267 743.488 352.696C745.146 353.124 746.594 354.323 747.515 356.028L785.163 425.942C786.082 427.65 786.398 429.725 786.04 431.711C785.682 433.697 784.68 435.431 783.255 436.533L771.05 445.961C769.624 447.06 767.892 447.437 766.235 447.008C764.577 446.58 763.129 445.382 762.208 443.676L724.56 373.762C723.7 372.174 723.365 370.259 723.62 368.392Z" fill="#2F2E41"/>
</g>
<defs>
<clipPath id="clip0_42_4">
<rect width="897" height="532" fill="white"/>
</clipPath>
</defs>
</svg>
